<?xml version="1.0" standalone="no"?><svg xmlns="http://www.w3.org/2000/svg" viewBox="0 0 1440 320"><path fill="#B1A39A" fill-opacity="1" d="M0,128L26.7,117.3C53.3,107,107,85,160,74.7C213.3,64,267,64,320,90.7C373.3,117,427,171,480,186.7C533.3,203,587,181,640,186.7C693.3,192,747,224,800,245.3C853.3,267,907,277,960,261.3C1013.3,245,1067,203,1120,181.3C1173.3,160,1227,160,1280,149.3C1333.3,139,1387,117,1413,106.7L1440,96L1440,320L1413.3,320C1386.7,320,1333,320,1280,320C1226.7,320,1173,320,1120,320C1066.7,320,1013,320,960,320C906.7,320,853,320,800,320C746.7,320,693,320,640,320C586.7,320,533,320,480,320C426.7,320,373,320,320,320C266.7,320,213,320,160,320C106.7,320,53,320,27,320L0,320Z"></path></svg>